o block
v -2 -2 0
v 2 -2 0
v 2 2 0
v -2 2 0
v -2 -2 4
v 2 -2 4
v 2 2 4
v -2 2 4
f 1 2 3 4
f 5 8 7 6
f 1 5 6 2
f 2 6 7 3
f 3 7 8 4
f 4 8 5 1
o bore
v 1 0 -1
v 0.997859 0.0654031 -1
v 0.991445 0.130526 -1
v 0.980785 0.19509 -1
v 0.965926 0.258819 -1
v 0.94693 0.321439 -1
v 0.92388 0.382683 -1
v 0.896873 0.442289 -1
v 0.866025 0.5 -1
v 0.83147 0.55557 -1
v 0.793353 0.608761 -1
v 0.75184 0.659346 -1
v 0.707107 0.707107 -1
v 0.659346 0.75184 -1
v 0.608761 0.793353 -1
v 0.55557 0.83147 -1
v 0.5 0.866025 -1
v 0.442289 0.896873 -1
v 0.382683 0.92388 -1
v 0.321439 0.94693 -1
v 0.258819 0.965926 -1
v 0.19509 0.980785 -1
v 0.130526 0.991445 -1
v 0.0654031 0.997859 -1
v 6.12323e-17 1 -1
v -0.0654031 0.997859 -1
v -0.130526 0.991445 -1
v -0.19509 0.980785 -1
v -0.258819 0.965926 -1
v -0.321439 0.94693 -1
v -0.382683 0.92388 -1
v -0.442289 0.896873 -1
v -0.5 0.866025 -1
v -0.55557 0.83147 -1
v -0.608761 0.793353 -1
v -0.659346 0.75184 -1
v -0.707107 0.707107 -1
v -0.75184 0.659346 -1
v -0.793353 0.608761 -1
v -0.83147 0.55557 -1
v -0.866025 0.5 -1
v -0.896873 0.442289 -1
v -0.92388 0.382683 -1
v -0.94693 0.321439 -1
v -0.965926 0.258819 -1
v -0.980785 0.19509 -1
v -0.991445 0.130526 -1
v -0.997859 0.0654031 -1
v -1 1.22465e-16 -1
v -0.997859 -0.0654031 -1
v -0.991445 -0.130526 -1
v -0.980785 -0.19509 -1
v -0.965926 -0.258819 -1
v -0.94693 -0.321439 -1
v -0.92388 -0.382683 -1
v -0.896873 -0.442289 -1
v -0.866025 -0.5 -1
v -0.83147 -0.55557 -1
v -0.793353 -0.608761 -1
v -0.75184 -0.659346 -1
v -0.707107 -0.707107 -1
v -0.659346 -0.75184 -1
v -0.608761 -0.793353 -1
v -0.55557 -0.83147 -1
v -0.5 -0.866025 -1
v -0.442289 -0.896873 -1
v -0.382683 -0.92388 -1
v -0.321439 -0.94693 -1
v -0.258819 -0.965926 -1
v -0.19509 -0.980785 -1
v -0.130526 -0.991445 -1
v -0.0654031 -0.997859 -1
v -1.83697e-16 -1 -1
v 0.0654031 -0.997859 -1
v 0.130526 -0.991445 -1
v 0.19509 -0.980785 -1
v 0.258819 -0.965926 -1
v 0.321439 -0.94693 -1
v 0.382683 -0.92388 -1
v 0.442289 -0.896873 -1
v 0.5 -0.866025 -1
v 0.55557 -0.83147 -1
v 0.608761 -0.793353 -1
v 0.659346 -0.75184 -1
v 0.707107 -0.707107 -1
v 0.75184 -0.659346 -1
v 0.793353 -0.608761 -1
v 0.83147 -0.55557 -1
v 0.866025 -0.5 -1
v 0.896873 -0.442289 -1
v 0.92388 -0.382683 -1
v 0.94693 -0.321439 -1
v 0.965926 -0.258819 -1
v 0.980785 -0.19509 -1
v 0.991445 -0.130526 -1
v 0.997859 -0.0654031 -1
v 1 0 5
v 0.997859 0.0654031 5
v 0.991445 0.130526 5
v 0.980785 0.19509 5
v 0.965926 0.258819 5
v 0.94693 0.321439 5
v 0.92388 0.382683 5
v 0.896873 0.442289 5
v 0.866025 0.5 5
v 0.83147 0.55557 5
v 0.793353 0.608761 5
v 0.75184 0.659346 5
v 0.707107 0.707107 5
v 0.659346 0.75184 5
v 0.608761 0.793353 5
v 0.55557 0.83147 5
v 0.5 0.866025 5
v 0.442289 0.896873 5
v 0.382683 0.92388 5
v 0.321439 0.94693 5
v 0.258819 0.965926 5
v 0.19509 0.980785 5
v 0.130526 0.991445 5
v 0.0654031 0.997859 5
v 6.12323e-17 1 5
v -0.0654031 0.997859 5
v -0.130526 0.991445 5
v -0.19509 0.980785 5
v -0.258819 0.965926 5
v -0.321439 0.94693 5
v -0.382683 0.92388 5
v -0.442289 0.896873 5
v -0.5 0.866025 5
v -0.55557 0.83147 5
v -0.608761 0.793353 5
v -0.659346 0.75184 5
v -0.707107 0.707107 5
v -0.75184 0.659346 5
v -0.793353 0.608761 5
v -0.83147 0.55557 5
v -0.866025 0.5 5
v -0.896873 0.442289 5
v -0.92388 0.382683 5
v -0.94693 0.321439 5
v -0.965926 0.258819 5
v -0.980785 0.19509 5
v -0.991445 0.130526 5
v -0.997859 0.0654031 5
v -1 1.22465e-16 5
v -0.997859 -0.0654031 5
v -0.991445 -0.130526 5
v -0.980785 -0.19509 5
v -0.965926 -0.258819 5
v -0.94693 -0.321439 5
v -0.92388 -0.382683 5
v -0.896873 -0.442289 5
v -0.866025 -0.5 5
v -0.83147 -0.55557 5
v -0.793353 -0.608761 5
v -0.75184 -0.659346 5
v -0.707107 -0.707107 5
v -0.659346 -0.75184 5
v -0.608761 -0.793353 5
v -0.55557 -0.83147 5
v -0.5 -0.866025 5
v -0.442289 -0.896873 5
v -0.382683 -0.92388 5
v -0.321439 -0.94693 5
v -0.258819 -0.965926 5
v -0.19509 -0.980785 5
v -0.130526 -0.991445 5
v -0.0654031 -0.997859 5
v -1.83697e-16 -1 5
v 0.0654031 -0.997859 5
v 0.130526 -0.991445 5
v 0.19509 -0.980785 5
v 0.258819 -0.965926 5
v 0.321439 -0.94693 5
v 0.382683 -0.92388 5
v 0.442289 -0.896873 5
v 0.5 -0.866025 5
v 0.55557 -0.83147 5
v 0.608761 -0.793353 5
v 0.659346 -0.75184 5
v 0.707107 -0.707107 5
v 0.75184 -0.659346 5
v 0.793353 -0.608761 5
v 0.83147 -0.55557 5
v 0.866025 -0.5 5
v 0.896873 -0.442289 5
v 0.92388 -0.382683 5
v 0.94693 -0.321439 5
v 0.965926 -0.258819 5
v 0.980785 -0.19509 5
v 0.991445 -0.130526 5
v 0.997859 -0.0654031 5
f 9 10 106 105
f 10 11 107 106
f 11 12 108 107
f 12 13 109 108
f 13 14 110 109
f 14 15 111 110
f 15 16 112 111
f 16 17 113 112
f 17 18 114 113
f 18 19 115 114
f 19 20 116 115
f 20 21 117 116
f 21 22 118 117
f 22 23 119 118
f 23 24 120 119
f 24 25 121 120
f 25 26 122 121
f 26 27 123 122
f 27 28 124 123
f 28 29 125 124
f 29 30 126 125
f 30 31 127 126
f 31 32 128 127
f 32 33 129 128
f 33 34 130 129
f 34 35 131 130
f 35 36 132 131
f 36 37 133 132
f 37 38 134 133
f 38 39 135 134
f 39 40 136 135
f 40 41 137 136
f 41 42 138 137
f 42 43 139 138
f 43 44 140 139
f 44 45 141 140
f 45 46 142 141
f 46 47 143 142
f 47 48 144 143
f 48 49 145 144
f 49 50 146 145
f 50 51 147 146
f 51 52 148 147
f 52 53 149 148
f 53 54 150 149
f 54 55 151 150
f 55 56 152 151
f 56 57 153 152
f 57 58 154 153
f 58 59 155 154
f 59 60 156 155
f 60 61 157 156
f 61 62 158 157
f 62 63 159 158
f 63 64 160 159
f 64 65 161 160
f 65 66 162 161
f 66 67 163 162
f 67 68 164 163
f 68 69 165 164
f 69 70 166 165
f 70 71 167 166
f 71 72 168 167
f 72 73 169 168
f 73 74 170 169
f 74 75 171 170
f 75 76 172 171
f 76 77 173 172
f 77 78 174 173
f 78 79 175 174
f 79 80 176 175
f 80 81 177 176
f 81 82 178 177
f 82 83 179 178
f 83 84 180 179
f 84 85 181 180
f 85 86 182 181
f 86 87 183 182
f 87 88 184 183
f 88 89 185 184
f 89 90 186 185
f 90 91 187 186
f 91 92 188 187
f 92 93 189 188
f 93 94 190 189
f 94 95 191 190
f 95 96 192 191
f 96 97 193 192
f 97 98 194 193
f 98 99 195 194
f 99 100 196 195
f 100 101 197 196
f 101 102 198 197
f 102 103 199 198
f 103 104 200 199
f 104 9 105 200
f 104 103 102 101 100 99 98 97 96 95 94 93 92 91 90 89 88 87 86 85 84 83 82 81 80 79 78 77 76 75 74 73 72 71 70 69 68 67 66 65 64 63 62 61 60 59 58 57 56 55 54 53 52 51 50 49 48 47 46 45 44 43 42 41 40 39 38 37 36 35 34 33 32 31 30 29 28 27 26 25 24 23 22 21 20 19 18 17 16 15 14 13 12 11 10 9
f 105 106 107 108 109 110 111 112 113 114 115 116 117 118 119 120 121 122 123 124 125 126 127 128 129 130 131 132 133 134 135 136 137 138 139 140 141 142 143 144 145 146 147 148 149 150 151 152 153 154 155 156 157 158 159 160 161 162 163 164 165 166 167 168 169 170 171 172 173 174 175 176 177 178 179 180 181 182 183 184 185 186 187 188 189 190 191 192 193 194 195 196 197 198 199 200
o block.minus.bore.subtract.a
v -2 -2 0
v 2 -2 0
v 2 2 0
v -2 2 0
v -2 -2 4
v 2 -2 4
v 2 2 4
v -2 2 4
f 201 202 203 204
f 205 208 207 206
f 201 205 206 202
f 202 206 207 203
f 203 207 208 204
f 204 208 205 201
o block.minus.bore.subtract.b
v 1 0 -1
v 0.997859 0.0654031 -1
v 0.991445 0.130526 -1
v 0.980785 0.19509 -1
v 0.965926 0.258819 -1
v 0.94693 0.321439 -1
v 0.92388 0.382683 -1
v 0.896873 0.442289 -1
v 0.866025 0.5 -1
v 0.83147 0.55557 -1
v 0.793353 0.608761 -1
v 0.75184 0.659346 -1
v 0.707107 0.707107 -1
v 0.659346 0.75184 -1
v 0.608761 0.793353 -1
v 0.55557 0.83147 -1
v 0.5 0.866025 -1
v 0.442289 0.896873 -1
v 0.382683 0.92388 -1
v 0.321439 0.94693 -1
v 0.258819 0.965926 -1
v 0.19509 0.980785 -1
v 0.130526 0.991445 -1
v 0.0654031 0.997859 -1
v 6.12323e-17 1 -1
v -0.0654031 0.997859 -1
v -0.130526 0.991445 -1
v -0.19509 0.980785 -1
v -0.258819 0.965926 -1
v -0.321439 0.94693 -1
v -0.382683 0.92388 -1
v -0.442289 0.896873 -1
v -0.5 0.866025 -1
v -0.55557 0.83147 -1
v -0.608761 0.793353 -1
v -0.659346 0.75184 -1
v -0.707107 0.707107 -1
v -0.75184 0.659346 -1
v -0.793353 0.608761 -1
v -0.83147 0.55557 -1
v -0.866025 0.5 -1
v -0.896873 0.442289 -1
v -0.92388 0.382683 -1
v -0.94693 0.321439 -1
v -0.965926 0.258819 -1
v -0.980785 0.19509 -1
v -0.991445 0.130526 -1
v -0.997859 0.0654031 -1
v -1 1.22465e-16 -1
v -0.997859 -0.0654031 -1
v -0.991445 -0.130526 -1
v -0.980785 -0.19509 -1
v -0.965926 -0.258819 -1
v -0.94693 -0.321439 -1
v -0.92388 -0.382683 -1
v -0.896873 -0.442289 -1
v -0.866025 -0.5 -1
v -0.83147 -0.55557 -1
v -0.793353 -0.608761 -1
v -0.75184 -0.659346 -1
v -0.707107 -0.707107 -1
v -0.659346 -0.75184 -1
v -0.608761 -0.793353 -1
v -0.55557 -0.83147 -1
v -0.5 -0.866025 -1
v -0.442289 -0.896873 -1
v -0.382683 -0.92388 -1
v -0.321439 -0.94693 -1
v -0.258819 -0.965926 -1
v -0.19509 -0.980785 -1
v -0.130526 -0.991445 -1
v -0.0654031 -0.997859 -1
v -1.83697e-16 -1 -1
v 0.0654031 -0.997859 -1
v 0.130526 -0.991445 -1
v 0.19509 -0.980785 -1
v 0.258819 -0.965926 -1
v 0.321439 -0.94693 -1
v 0.382683 -0.92388 -1
v 0.442289 -0.896873 -1
v 0.5 -0.866025 -1
v 0.55557 -0.83147 -1
v 0.608761 -0.793353 -1
v 0.659346 -0.75184 -1
v 0.707107 -0.707107 -1
v 0.75184 -0.659346 -1
v 0.793353 -0.608761 -1
v 0.83147 -0.55557 -1
v 0.866025 -0.5 -1
v 0.896873 -0.442289 -1
v 0.92388 -0.382683 -1
v 0.94693 -0.321439 -1
v 0.965926 -0.258819 -1
v 0.980785 -0.19509 -1
v 0.991445 -0.130526 -1
v 0.997859 -0.0654031 -1
v 1 0 5
v 0.997859 0.0654031 5
v 0.991445 0.130526 5
v 0.980785 0.19509 5
v 0.965926 0.258819 5
v 0.94693 0.321439 5
v 0.92388 0.382683 5
v 0.896873 0.442289 5
v 0.866025 0.5 5
v 0.83147 0.55557 5
v 0.793353 0.608761 5
v 0.75184 0.659346 5
v 0.707107 0.707107 5
v 0.659346 0.75184 5
v 0.608761 0.793353 5
v 0.55557 0.83147 5
v 0.5 0.866025 5
v 0.442289 0.896873 5
v 0.382683 0.92388 5
v 0.321439 0.94693 5
v 0.258819 0.965926 5
v 0.19509 0.980785 5
v 0.130526 0.991445 5
v 0.0654031 0.997859 5
v 6.12323e-17 1 5
v -0.0654031 0.997859 5
v -0.130526 0.991445 5
v -0.19509 0.980785 5
v -0.258819 0.965926 5
v -0.321439 0.94693 5
v -0.382683 0.92388 5
v -0.442289 0.896873 5
v -0.5 0.866025 5
v -0.55557 0.83147 5
v -0.608761 0.793353 5
v -0.659346 0.75184 5
v -0.707107 0.707107 5
v -0.75184 0.659346 5
v -0.793353 0.608761 5
v -0.83147 0.55557 5
v -0.866025 0.5 5
v -0.896873 0.442289 5
v -0.92388 0.382683 5
v -0.94693 0.321439 5
v -0.965926 0.258819 5
v -0.980785 0.19509 5
v -0.991445 0.130526 5
v -0.997859 0.0654031 5
v -1 1.22465e-16 5
v -0.997859 -0.0654031 5
v -0.991445 -0.130526 5
v -0.980785 -0.19509 5
v -0.965926 -0.258819 5
v -0.94693 -0.321439 5
v -0.92388 -0.382683 5
v -0.896873 -0.442289 5
v -0.866025 -0.5 5
v -0.83147 -0.55557 5
v -0.793353 -0.608761 5
v -0.75184 -0.659346 5
v -0.707107 -0.707107 5
v -0.659346 -0.75184 5
v -0.608761 -0.793353 5
v -0.55557 -0.83147 5
v -0.5 -0.866025 5
v -0.442289 -0.896873 5
v -0.382683 -0.92388 5
v -0.321439 -0.94693 5
v -0.258819 -0.965926 5
v -0.19509 -0.980785 5
v -0.130526 -0.991445 5
v -0.0654031 -0.997859 5
v -1.83697e-16 -1 5
v 0.0654031 -0.997859 5
v 0.130526 -0.991445 5
v 0.19509 -0.980785 5
v 0.258819 -0.965926 5
v 0.321439 -0.94693 5
v 0.382683 -0.92388 5
v 0.442289 -0.896873 5
v 0.5 -0.866025 5
v 0.55557 -0.83147 5
v 0.608761 -0.793353 5
v 0.659346 -0.75184 5
v 0.707107 -0.707107 5
v 0.75184 -0.659346 5
v 0.793353 -0.608761 5
v 0.83147 -0.55557 5
v 0.866025 -0.5 5
v 0.896873 -0.442289 5
v 0.92388 -0.382683 5
v 0.94693 -0.321439 5
v 0.965926 -0.258819 5
v 0.980785 -0.19509 5
v 0.991445 -0.130526 5
v 0.997859 -0.0654031 5
f 209 210 306 305
f 210 211 307 306
f 211 212 308 307
f 212 213 309 308
f 213 214 310 309
f 214 215 311 310
f 215 216 312 311
f 216 217 313 312
f 217 218 314 313
f 218 219 315 314
f 219 220 316 315
f 220 221 317 316
f 221 222 318 317
f 222 223 319 318
f 223 224 320 319
f 224 225 321 320
f 225 226 322 321
f 226 227 323 322
f 227 228 324 323
f 228 229 325 324
f 229 230 326 325
f 230 231 327 326
f 231 232 328 327
f 232 233 329 328
f 233 234 330 329
f 234 235 331 330
f 235 236 332 331
f 236 237 333 332
f 237 238 334 333
f 238 239 335 334
f 239 240 336 335
f 240 241 337 336
f 241 242 338 337
f 242 243 339 338
f 243 244 340 339
f 244 245 341 340
f 245 246 342 341
f 246 247 343 342
f 247 248 344 343
f 248 249 345 344
f 249 250 346 345
f 250 251 347 346
f 251 252 348 347
f 252 253 349 348
f 253 254 350 349
f 254 255 351 350
f 255 256 352 351
f 256 257 353 352
f 257 258 354 353
f 258 259 355 354
f 259 260 356 355
f 260 261 357 356
f 261 262 358 357
f 262 263 359 358
f 263 264 360 359
f 264 265 361 360
f 265 266 362 361
f 266 267 363 362
f 267 268 364 363
f 268 269 365 364
f 269 270 366 365
f 270 271 367 366
f 271 272 368 367
f 272 273 369 368
f 273 274 370 369
f 274 275 371 370
f 275 276 372 371
f 276 277 373 372
f 277 278 374 373
f 278 279 375 374
f 279 280 376 375
f 280 281 377 376
f 281 282 378 377
f 282 283 379 378
f 283 284 380 379
f 284 285 381 380
f 285 286 382 381
f 286 287 383 382
f 287 288 384 383
f 288 289 385 384
f 289 290 386 385
f 290 291 387 386
f 291 292 388 387
f 292 293 389 388
f 293 294 390 389
f 294 295 391 390
f 295 296 392 391
f 296 297 393 392
f 297 298 394 393
f 298 299 395 394
f 299 300 396 395
f 300 301 397 396
f 301 302 398 397
f 302 303 399 398
f 303 304 400 399
f 304 209 305 400
f 304 303 302 301 300 299 298 297 296 295 294 293 292 291 290 289 288 287 286 285 284 283 282 281 280 279 278 277 276 275 274 273 272 271 270 269 268 267 266 265 264 263 262 261 260 259 258 257 256 255 254 253 252 251 250 249 248 247 246 245 244 243 242 241 240 239 238 237 236 235 234 233 232 231 230 229 228 227 226 225 224 223 222 221 220 219 218 217 216 215 214 213 212 211 210 209
f 305 306 307 308 309 310 311 312 313 314 315 316 317 318 319 320 321 322 323 324 325 326 327 328 329 330 331 332 333 334 335 336 337 338 339 340 341 342 343 344 345 346 347 348 349 350 351 352 353 354 355 356 357 358 359 360 361 362 363 364 365 366 367 368 369 370 371 372 373 374 375 376 377 378 379 380 381 382 383 384 385 386 387 388 389 390 391 392 393 394 395 396 397 398 399 400
