o tree
v 0.288 0 0
v 0.144 0.249415 0
v -0.144 0.249415 0
v -0.288 3.52698e-17 0
v -0.144 -0.249415 0
v 0.144 -0.249415 0
v 0.153 0 1.5
v 0.0765 0.132502 1.5
v -0.0765 0.132502 1.5
v -0.153 1.87371e-17 1.5
v -0.0765 -0.132502 1.5
v 0.0765 -0.132502 1.5
v 0.13005 0 3
v 0.065025 0.112627 3
v -0.065025 0.112627 3
v -0.13005 1.59265e-17 3
v -0.065025 -0.112627 3
v 0.065025 -0.112627 3
v 0.110543 0 4.5
v 0.0552713 0.0957326 4.5
v -0.0552712 0.0957326 4.5
v -0.110543 1.35376e-17 4.5
v -0.0552713 -0.0957326 4.5
v 0.0552713 -0.0957326 4.5
v 0.0939611 0 6
v 0.0469806 0.0813727 6
v -0.0469806 0.0813727 6
v -0.0939611 1.15069e-17 6
v -0.0469806 -0.0813727 6
v 0.0469806 -0.0813727 6
v 1.8 0 4.95
v -1.8 0 4.95
v 0 1.8 4.95
v 0 -1.8 4.95
v 0 0 6.75
v 0 0 3.15
v 1.27279 1.27279 4.95
v 0 1.27279 6.22279
v 1.27279 0 6.22279
v -1.27279 1.27279 4.95
v -1.27279 0 6.22279
v -1.27279 -1.27279 4.95
v 0 -1.27279 6.22279
v 1.27279 -1.27279 4.95
v 1.27279 0 3.67721
v 0 1.27279 3.67721
v -1.27279 0 3.67721
v 0 -1.27279 3.67721
f 6 5 4 3 2 1
f 1 2 8 7
f 2 3 9 8
f 3 4 10 9
f 4 5 11 10
f 5 6 12 11
f 6 1 7 12
f 7 8 14 13
f 8 9 15 14
f 9 10 16 15
f 10 11 17 16
f 11 12 18 17
f 12 7 13 18
f 13 14 20 19
f 14 15 21 20
f 15 16 22 21
f 16 17 23 22
f 17 18 24 23
f 18 13 19 24
f 19 20 26 25
f 20 21 27 26
f 21 22 28 27
f 22 23 29 28
f 23 24 30 29
f 24 19 25 30
f 31 37 39
f 37 33 38
f 39 38 35
f 37 38 39
f 33 40 38
f 40 32 41
f 38 41 35
f 40 41 38
f 32 42 41
f 42 34 43
f 41 43 35
f 42 43 41
f 34 44 43
f 44 31 39
f 43 39 35
f 44 39 43
f 33 37 46
f 37 31 45
f 46 45 36
f 37 45 46
f 32 40 47
f 40 33 46
f 47 46 36
f 40 46 47
f 34 42 48
f 42 32 47
f 48 47 36
f 42 47 48
f 31 44 45
f 44 34 48
f 45 48 36
f 44 48 45
